<?xml version="1.0" encoding="UTF-8"?>
<svg version="1.1" xmlns="http://www.w3.org/2000/svg" width="512" height="512">
<path d="M0 0 C1.09162414 -0.00872064 1.09162414 -0.00872064 2.20530128 -0.01761746 C4.64518032 -0.03222159 7.084054 -0.01833099 9.52392578 -0.00457001 C11.29024775 -0.00917877 13.05656588 -0.01553152 14.82287598 -0.02347898 C19.677714 -0.04019879 24.53223808 -0.03191387 29.38707733 -0.01953411 C34.62233116 -0.01049681 39.8575304 -0.02444679 45.09277344 -0.0354538 C55.34904982 -0.0532577 65.60520924 -0.04939069 75.86149025 -0.03780323 C84.19559312 -0.02877655 92.52966317 -0.0275416 100.86376953 -0.0318985 C102.04907887 -0.03251143 103.2343882 -0.03312436 104.455616 -0.03375587 C106.86340842 -0.03503475 109.27120083 -0.0363316 111.67899323 -0.03764623 C134.26678696 -0.04905752 156.8545158 -0.03592972 179.44229889 -0.01444477 C198.83151952 0.00342669 218.22064437 0.00032274 237.60986328 -0.01811981 C260.11579974 -0.03951683 282.6216793 -0.04795883 305.12762451 -0.03567076 C307.52665201 -0.03439654 309.92567952 -0.03313905 312.32470703 -0.0318985 C314.09534452 -0.03097285 314.09534452 -0.03097285 315.90175247 -0.03002849 C324.22764703 -0.02657209 332.55350555 -0.0324102 340.87939453 -0.04181671 C351.02330232 -0.05302508 361.16708627 -0.05002109 371.31097984 -0.02869374 C376.48841545 -0.01816771 381.66564445 -0.01408797 386.84307861 -0.02729034 C391.58038077 -0.03918786 396.3172843 -0.03269532 401.05455017 -0.01138014 C402.77047836 -0.00690286 404.48644006 -0.0092055 406.2023468 -0.01888329 C408.53153822 -0.03101482 410.85935721 -0.01860661 413.18847656 0 C414.48310822 0.00064941 415.77773987 0.00129882 417.11160278 0.00196791 C422.35121449 0.75631725 425.38911078 3.2348093 428.96923828 7.00336456 C431.36727404 12.16836465 431.34805364 16.90359336 430.59423828 22.50336456 C428.28489633 27.47733185 425.31891915 29.83026846 420.59423828 32.50336456 C417.11160278 33.00476122 417.11160278 33.00476122 413.18847656 33.00672913 C412.09685243 33.01544977 412.09685243 33.01544977 410.98317528 33.02434659 C408.54329624 33.03895071 406.10442257 33.02506012 403.66455078 33.01129913 C401.89822882 33.0159079 400.13191068 33.02226065 398.36560059 33.03020811 C393.51076256 33.04692791 388.65623848 33.038643 383.80139923 33.02626324 C378.5661454 33.01722593 373.33094617 33.03117592 368.09570312 33.04218292 C357.83942674 33.05998682 347.58326732 33.05611981 337.32698631 33.04453236 C328.99288344 33.03550568 320.65881339 33.03427072 312.32470703 33.03862762 C311.1393977 33.03924056 309.95408836 33.03985349 308.73286057 33.04048499 C306.32506815 33.04176387 303.91727574 33.04306072 301.50948334 33.04437536 C278.9216896 33.05578664 256.33396076 33.04265884 233.74617767 33.02117389 C214.35695704 33.00330243 194.96783219 33.00640639 175.57861328 33.02484894 C153.07267682 33.04624595 130.56679726 33.05468795 108.06085205 33.04239988 C105.66182455 33.04112566 103.26279705 33.03986818 100.86376953 33.03862762 C99.09313204 33.03770197 99.09313204 33.03770197 97.28672409 33.03675762 C88.96082953 33.03330121 80.63497101 33.03913932 72.30908203 33.04854584 C62.16517424 33.0597542 52.02139029 33.05675021 41.87749672 33.03542286 C36.70006111 33.02489684 31.52283212 33.0208171 26.34539795 33.03401947 C21.60809579 33.04591698 16.87119226 33.03942445 12.13392639 33.01810926 C10.4179982 33.01363199 8.7020365 33.01593462 6.98612976 33.02561241 C4.65693834 33.03774394 2.32911935 33.02533573 0 33.00672913 C-1.29463165 33.00607972 -2.58926331 33.00543031 -3.92312622 33.00476122 C-9.16273792 32.25041188 -12.20063422 29.77191983 -15.78076172 26.00336456 C-18.17879747 20.83836448 -18.15957707 16.10313576 -17.40576172 10.50336456 C-13.86043903 2.86728492 -8.20611281 0.00411633 0 0 Z " fill="#000000" transform="translate(49.40576171875,239.49663543701172)"/>
<path d="M0 0 C4.96690463 2.30606286 7.39621184 5.2354099 10 10 C10.56345351 13.10687581 10.54734111 16.15212164 10.51757812 19.30322266 C10.5245874 20.22116608 10.53159668 21.1391095 10.53881836 22.08486938 C10.55638317 25.11157746 10.54477491 28.1373453 10.53125 31.1640625 C10.53394673 33.27908507 10.53783066 35.39410642 10.54284668 37.50912476 C10.54874087 41.94256389 10.54018626 46.37568045 10.52148438 50.80908203 C10.49877889 56.46457157 10.51176529 62.1192982 10.53577423 67.77475929 C10.55030588 72.14510728 10.54559115 76.5152779 10.53526306 80.88563156 C10.53261173 82.96902941 10.53580886 85.05244384 10.54518127 87.1358223 C10.60828658 105.11736222 8.32277149 118.13132294 -4.3125 131.75 C-14.05276925 140.96846912 -25.41272897 144.46802176 -38.58691406 144.40405273 C-39.59310791 144.41091599 -40.59930176 144.41777924 -41.63598633 144.42485046 C-44.92934666 144.44300695 -48.22222586 144.43929888 -51.515625 144.43359375 C-53.81866611 144.43815895 -56.12170586 144.44346553 -58.42474365 144.44947815 C-63.23601848 144.45838584 -68.04712707 144.45601046 -72.85839844 144.44604492 C-79.02100897 144.43452316 -85.18304922 144.45482815 -91.34558487 144.48396206 C-96.09482455 144.50230575 -100.84392685 144.50203581 -105.59319305 144.49632454 C-107.86576898 144.49617129 -110.13835419 144.50221859 -112.4108963 144.51461601 C-115.58451787 144.52949944 -118.75707572 144.51886983 -121.93066406 144.50170898 C-123.33345612 144.51621094 -123.33345612 144.51621094 -124.7645874 144.53100586 C-130.35352928 144.46774839 -133.57047137 143.73635832 -138 140 C-141.62833663 136.18069828 -142.31000458 133.11720994 -142.5 128 C-142.31000458 122.88279006 -141.62833663 119.81930172 -138 116 C-132.89205417 111.78528724 -129.16984627 111.42848663 -122.83276367 111.50170898 C-121.92950851 111.49619019 -121.02625336 111.49067139 -120.09562683 111.48498535 C-118.14120338 111.47568519 -116.18671932 111.47554374 -114.23229027 111.48357964 C-111.13317621 111.49623584 -108.03494944 111.48489435 -104.93586731 111.46754456 C-99.46978517 111.44085228 -94.00392103 111.43524826 -88.53778076 111.43664551 C-79.80018608 111.43887404 -71.06286215 111.42462115 -62.3253727 111.38105965 C-59.28262073 111.37126168 -56.24029835 111.37991912 -53.19755554 111.38975525 C-51.31684087 111.38360666 -49.43612849 111.37669346 -47.55541992 111.36889648 C-46.71823425 111.37661575 -45.88104858 111.38433502 -45.01849365 111.39228821 C-38.31333142 111.33526784 -31.62964977 110.42736902 -26.5625 105.75 C-23.19352586 99.82060552 -22.70904685 94.04590438 -22.74462891 87.40600586 C-22.74100845 86.57581436 -22.737388 85.74562286 -22.73365784 84.89027405 C-22.72679755 83.09900443 -22.72425204 81.30771406 -22.72560501 79.51643181 C-22.72657487 76.67866375 -22.71357527 73.84126966 -22.69662476 71.0035553 C-22.65048111 62.93949216 -22.62573756 54.87547006 -22.61914062 46.8112793 C-22.61412366 41.86879218 -22.58987082 36.92669977 -22.55381393 31.98434639 C-22.54402653 30.105346 -22.5416782 28.22629126 -22.54698563 26.34727287 C-22.55406363 23.7192858 -22.53676152 21.09247549 -22.51416016 18.46459961 C-22.52641884 17.30720779 -22.52641884 17.30720779 -22.53892517 16.12643433 C-22.45957228 10.93043313 -21.25628389 8.01555948 -18 4 C-12.72867143 -1.00776214 -6.89190982 -0.92775709 0 0 Z " fill="#000000" transform="translate(470,336)"/>
<path d="M0 0 C4.96914456 2.30710283 7.3659932 5.25343714 10 10 C10.37365041 12.94088667 10.53546979 15.50063782 10.49829102 18.43286133 C10.50380981 19.25808792 10.50932861 20.08331451 10.51501465 20.93354797 C10.52430895 22.71772195 10.52446111 24.50196228 10.51642036 26.28614235 C10.50375222 29.11644536 10.51511623 31.94577849 10.53245544 34.77604675 C10.55913713 39.76866392 10.56475219 44.7610424 10.56335449 49.75372314 C10.56112533 57.73331376 10.57541354 65.71260782 10.61894035 73.69208336 C10.62872793 76.46893993 10.62008635 79.24532461 10.61024475 82.02217102 C10.61639422 83.7411021 10.6233077 85.46003068 10.63110352 87.17895508 C10.62338425 87.94133484 10.61566498 88.7037146 10.60771179 89.48919678 C10.66821189 96.00089194 11.72621896 102.53673721 16.25 107.4375 C22.47002879 110.97160727 28.3411954 111.28949694 35.32836914 111.25537109 C36.2365892 111.25899155 37.14480927 111.262612 38.08055115 111.26634216 C40.04206911 111.27320757 42.00360606 111.27574698 43.96513557 111.27439499 C47.07173114 111.27342609 50.17798421 111.28641372 53.28453064 111.30337524 C62.11324458 111.34954722 70.94192132 111.37426337 79.77075195 111.38085938 C85.18006158 111.3858742 90.58901021 111.41011701 95.99819756 111.44618607 C98.05582957 111.45597907 100.11351126 111.45831875 102.17115974 111.45301437 C105.04817468 111.44594268 107.92411227 111.4632265 110.80102539 111.48583984 C112.07062607 111.47358116 112.07062607 111.47358116 113.36587524 111.46107483 C118.72230634 111.53589935 121.73234631 112.4775669 126 116 C129.62833663 119.81930172 130.31000458 122.88279006 130.5 128 C130.31000458 133.11720994 129.62833663 136.18069828 126 140 C120.71740443 144.45034585 116.56121971 144.57490335 109.96240234 144.51757812 C108.96643036 144.5245874 107.97045837 144.53159668 106.94430542 144.53881836 C103.65789738 144.55639409 100.37235406 144.54477119 97.0859375 144.53125 C94.7915531 144.5339463 92.49716981 144.53782987 90.20278931 144.54284668 C85.392732 144.54874227 80.58297194 144.54018124 75.77294922 144.52148438 C69.63320732 144.49877238 63.49416788 144.5117688 57.35445213 144.53577423 C52.61352342 144.55029636 47.87275841 144.54559553 43.13182449 144.53526306 C40.86979716 144.53260946 38.60775459 144.53581697 36.34574509 144.54518127 C17.6302005 144.60562505 4.50270439 142.91101567 -9.75 129.6875 C-18.70634378 120.22419337 -22.47192157 108.99699038 -22.40405273 96.14746094 C-22.41091599 95.21929565 -22.41777924 94.29113037 -22.42485046 93.33483887 C-22.44298596 90.30119045 -22.43930216 87.26806537 -22.43359375 84.234375 C-22.43815982 82.11069574 -22.44346666 79.98701795 -22.44947815 77.86334229 C-22.45838159 73.42869024 -22.45601521 68.99421859 -22.44604492 64.55957031 C-22.43452096 58.8812148 -22.45483347 53.20347799 -22.48396206 47.5252037 C-22.50231076 43.14654605 -22.50203487 38.76803734 -22.49632454 34.38935089 C-22.49617137 32.29540383 -22.50221244 30.20144665 -22.51461601 28.10753632 C-22.52950996 25.18294835 -22.51886277 22.25951304 -22.50170898 19.33496094 C-22.51137695 18.47457214 -22.52104492 17.61418335 -22.53100586 16.72772217 C-22.46481018 11.33228271 -21.55807084 8.29502077 -18 4 C-12.72867143 -1.00776214 -6.89190982 -0.92775709 0 0 Z " fill="#000000" transform="translate(54,336)"/>
<path d="M0 0 C0.99597198 -0.00700928 1.99194397 -0.01401855 3.01809692 -0.02124023 C6.30450497 -0.03881596 9.59004828 -0.02719307 12.87646484 -0.01367188 C15.17084925 -0.01636817 17.46523253 -0.02025174 19.75961304 -0.02526855 C24.56967034 -0.03116414 29.37943041 -0.02260311 34.18945312 -0.00390625 C40.32919503 0.01880575 46.46823447 0.00580932 52.60795021 -0.01819611 C57.34887893 -0.03271824 62.08964393 -0.0280174 66.83057785 -0.01768494 C69.09260518 -0.01503134 71.35464776 -0.01823885 73.61665726 -0.02760315 C92.33220184 -0.08804692 105.45969795 1.60656245 119.71240234 14.83007812 C128.66874612 24.29338476 132.43432391 35.52058774 132.36645508 48.37011719 C132.37331833 49.29828247 132.38018158 50.22644775 132.38725281 51.18273926 C132.40538831 54.21638768 132.4017045 57.24951275 132.39599609 60.28320312 C132.40056217 62.40688239 132.40586901 64.53056018 132.41188049 66.65423584 C132.42078393 71.08888788 132.41841756 75.52335954 132.40844727 79.95800781 C132.3969233 85.63636333 132.41723581 91.31410013 132.4463644 96.99237442 C132.46471311 101.37103207 132.46443722 105.74954079 132.45872688 110.12822723 C132.45857371 112.2221743 132.46461479 114.31613148 132.47701836 116.41004181 C132.4919123 119.33462977 132.48126511 122.25806508 132.46411133 125.18261719 C132.47861328 126.47320038 132.47861328 126.47320038 132.4934082 127.78985596 C132.42721252 133.18529542 131.52047318 136.22255735 127.96240234 140.51757812 C124.14310062 144.14591476 121.07961228 144.82758271 115.96240234 145.01757812 C110.84519241 144.82758271 107.78170406 144.14591476 103.96240234 140.51757812 C100.11659622 135.7736597 99.38876774 132.02693129 99.46411133 126.0847168 C99.45859253 125.2594902 99.45307373 124.43426361 99.4473877 123.58403015 C99.4380934 121.79985617 99.43794123 120.01561584 99.44598198 118.23143578 C99.45865013 115.40113276 99.44728611 112.57179963 99.4299469 109.74153137 C99.40326521 104.74891421 99.39765015 99.75653573 99.39904785 94.76385498 C99.40127701 86.78426437 99.3869888 78.8049703 99.34346199 70.82549477 C99.33367441 68.0486382 99.34231599 65.27225351 99.35215759 62.4954071 C99.34600812 60.77647602 99.33909464 59.05754745 99.33129883 57.33862305 C99.3390181 56.57624329 99.34673737 55.81386353 99.35469055 55.02838135 C99.29419045 48.51668619 98.23618338 41.98084091 93.71240234 37.08007812 C87.49237355 33.54597086 81.62120694 33.22808118 74.6340332 33.26220703 C73.72581314 33.25858658 72.81759308 33.25496613 71.8818512 33.25123596 C69.92033323 33.24437056 67.95879628 33.24183114 65.99726677 33.24318314 C62.8906712 33.24415203 59.78441813 33.23116441 56.6778717 33.21420288 C47.84915776 33.16803091 39.02048103 33.14331475 30.19165039 33.13671875 C24.78234076 33.13170392 19.37339214 33.10746111 13.96420479 33.07139206 C11.90657277 33.06159905 9.84889108 33.05925938 7.7912426 33.06456375 C4.91422767 33.07163544 2.03829008 33.05435163 -0.83862305 33.03173828 C-1.6850235 33.03991074 -2.53142395 33.04808319 -3.4034729 33.0565033 C-8.759904 32.98167877 -11.76994397 32.04001123 -16.03759766 28.51757812 C-19.66593429 24.6982764 -20.34760224 21.63478806 -20.53759766 16.51757812 C-20.34760224 11.40036819 -19.66593429 8.33687985 -16.03759766 4.51757812 C-10.75500208 0.06723227 -6.59881737 -0.05732522 0 0 Z " fill="#000000" transform="translate(348.03759765625,31.482421875)"/>
<path d="M0 0 C1.00619385 -0.00686325 2.0123877 -0.0137265 3.04907227 -0.02079773 C6.3424326 -0.03895422 9.6353118 -0.03524614 12.92871094 -0.02954102 C15.23175205 -0.03410622 17.5347918 -0.0394128 19.83782959 -0.04542542 C24.64910441 -0.05433311 29.460213 -0.05195772 34.27148438 -0.04199219 C40.4340949 -0.03047043 46.59613515 -0.05077542 52.75867081 -0.07990932 C57.50791049 -0.09825302 62.25701278 -0.09798308 67.00627899 -0.0922718 C69.27885491 -0.09211856 71.55144013 -0.09816585 73.82398224 -0.11056328 C76.99760381 -0.12544671 80.17016166 -0.11481709 83.34375 -0.09765625 C84.74654205 -0.1121582 84.74654205 -0.1121582 86.17767334 -0.12695312 C91.76661522 -0.06369565 94.98355731 0.66769441 99.41308594 4.40405273 C103.04142257 8.22335445 103.72309052 11.2868428 103.91308594 16.40405273 C103.72309052 21.52126267 103.04142257 24.58475101 99.41308594 28.40405273 C94.30514011 32.6187655 90.58293221 32.9755661 84.24584961 32.90234375 C83.34259445 32.90786255 82.43933929 32.91338135 81.50871277 32.91906738 C79.55428932 32.92836755 77.59980526 32.92850899 75.64537621 32.9204731 C72.54626215 32.9078169 69.44803538 32.91915838 66.34895325 32.93650818 C60.8828711 32.96320046 55.41700696 32.96880448 49.9508667 32.96740723 C41.21327202 32.9651787 32.47594809 32.97943159 23.73845863 33.02299309 C20.69570667 33.03279105 17.65338428 33.02413362 14.61064148 33.01429749 C12.7299268 33.02044608 10.84921442 33.02735927 8.96850586 33.03515625 C8.13132019 33.02743698 7.29413452 33.01971771 6.43157959 33.01176453 C-0.27358264 33.0687849 -6.9572643 33.97668372 -12.02441406 38.65405273 C-15.3933882 44.58344721 -15.87786721 50.35814835 -15.84228516 56.99804688 C-15.84771584 58.24333412 -15.84771584 58.24333412 -15.85325623 59.51377869 C-15.86011651 61.30504831 -15.86266202 63.09633868 -15.86130905 64.88762093 C-15.8603392 67.72538898 -15.87333879 70.56278307 -15.89028931 73.40049744 C-15.93643295 81.46456057 -15.9611765 89.52858267 -15.96777344 97.59277344 C-15.97279041 102.53526055 -15.99704324 107.47735297 -16.03310013 112.41970634 C-16.04288753 114.29870674 -16.04523586 116.17776147 -16.03992844 118.05677986 C-16.03285043 120.68476693 -16.05015254 123.31157725 -16.07275391 125.93945312 C-16.06458145 126.71104767 -16.056409 127.48264221 -16.04798889 128.27761841 C-16.12734178 133.47361961 -17.33063017 136.38849325 -20.58691406 140.40405273 C-24.40621578 144.03238937 -27.46970412 144.71405732 -32.58691406 144.90405273 C-37.704124 144.71405732 -40.76761234 144.03238937 -44.58691406 140.40405273 C-48.83480989 135.26996806 -49.16472292 131.47764685 -49.10449219 125.10083008 C-49.11150146 124.18288666 -49.11851074 123.26494324 -49.12573242 122.31918335 C-49.14329724 119.29247528 -49.13168897 116.26670744 -49.11816406 113.23999023 C-49.12086079 111.12496767 -49.12474472 109.00994631 -49.12976074 106.89492798 C-49.13565494 102.46148885 -49.12710032 98.02837229 -49.10839844 93.5949707 C-49.08569296 87.93948117 -49.09867935 82.28475453 -49.12268829 76.62929344 C-49.13721994 72.25894545 -49.13250521 67.88877484 -49.12217712 63.51842117 C-49.11952579 61.43502333 -49.12272292 59.35160889 -49.13209534 57.26823044 C-49.19520065 39.28669051 -46.90968556 26.27272979 -34.27441406 12.65405273 C-24.53414481 3.43558362 -13.17418509 -0.06396903 0 0 Z " fill="#000000" transform="translate(80.5869140625,31.595947265625)"/>
</svg>
